<?xml version="1.0" standalone="no"?>
<!DOCTYPE svg PUBLIC "-//W3C//DTD SVG 20010904//EN"
 "http://www.w3.org/TR/2001/REC-SVG-20010904/DTD/svg10.dtd">
<svg version="1.0" xmlns="http://www.w3.org/2000/svg"
 width="512.000000pt" height="512.000000pt" viewBox="0 0 512.000000 512.000000"
 preserveAspectRatio="xMidYMid meet">
<metadata>
Created by potrace 1.14, written by Peter Selinger 2001-2017
</metadata>
<g transform="translate(0.000000,512.000000) scale(0.100000,-0.100000)"
fill="#000000" stroke="none">
<path d="M2660 5111 c-14 -5 -116 -54 -227 -110 -224 -112 -262 -143 -288
-236 -23 -82 -1 -187 50 -235 l24 -23 -28 -36 c-40 -52 -55 -96 -54 -165 0
-65 27 -135 65 -168 19 -16 19 -17 -1 -37 -25 -25 -53 -77 -60 -115 -6 -27
-15 -32 -118 -67 -395 -135 -698 -429 -792 -769 -28 -100 -35 -164 -35 -325 1
-205 8 -279 49 -465 6 -30 57 -136 83 -175 15 -22 48 -62 73 -89 l47 -50 -58
-65 c-105 -119 -206 -291 -234 -397 -20 -76 -14 -201 14 -271 63 -156 161
-231 304 -231 63 0 91 6 175 32 22 8 23 7 17 -35 -4 -24 -9 -66 -12 -94 -3
-27 -7 -61 -9 -75 -17 -93 -25 -497 -12 -600 15 -110 94 -217 202 -273 54 -27
69 -31 150 -31 80 0 97 3 147 28 70 35 136 98 166 157 72 144 136 405 147 599
1 25 3 50 4 55 1 6 45 10 111 10 103 0 110 -1 111 -20 1 -11 3 -29 4 -40 1
-11 5 -54 9 -95 15 -154 79 -389 139 -505 25 -50 88 -117 138 -147 47 -29 127
-47 196 -44 119 5 239 85 294 194 24 49 26 54 36 112 17 95 3 552 -22 695 -18
107 -18 118 1 111 182 -70 355 -29 439 104 60 96 86 236 63 346 -21 104 -139
306 -247 425 l-50 54 43 45 c154 161 206 340 210 725 3 221 -21 340 -100 500
-143 291 -457 536 -807 630 -55 15 -67 21 -61 34 47 112 38 194 -32 287 l-23
32 21 18 c81 72 79 266 -3 340 -17 15 -17 18 13 55 34 42 59 131 51 182 -19
127 -111 214 -235 222 -35 2 -74 1 -88 -4z"/>
</g>
</svg>
